HIERARCHY
ROOT Hips
{
  OFFSET 0 0 0
  CHANNELS 6 Xposition Yposition Zposition Zrotation Yrotation Xrotation
  JOINT LeftThigh
  {
    OFFSET 8.409438 0 -5.917753
    CHANNELS 3 Zrotation Yrotation Xrotation
    JOINT LeftLeg
    {
      OFFSET 0 0 -42.358652
      CHANNELS 3 Zrotation Yrotation Xrotation
      JOINT LeftFoot
      {
        OFFSET 0 0 -39.357303
        CHANNELS 3 Zrotation Yrotation Xrotation
      }
    }
  }
  JOINT RightThigh
  {
    OFFSET -8.409438 0 -5.917753
    CHANNELS 3 Zrotation Yrotation Xrotation
    JOINT RightLeg
    {
      OFFSET 0 0 -42.358652
      CHANNELS 3 Zrotation Yrotation Xrotation
      JOINT RightFoot
      {
        OFFSET 0 0 -39.357303
        CHANNELS 3 Zrotation Yrotation Xrotation
      }
    }
  }
  JOINT SpineLow
  {
    OFFSET 0 0 4.719101
    CHANNELS 3 Zrotation Yrotation Xrotation
    JOINT SpineMid
    {
      OFFSET 0 0 12.899191
      CHANNELS 3 Zrotation Yrotation Xrotation
      JOINT Chest
      {
        OFFSET 0 0 12.899191
        CHANNELS 3 Zrotation Yrotation Xrotation
        JOINT LeftShoulder
        {
          OFFSET 7.550562 1.41573 9.438202
          CHANNELS 3 Zrotation Yrotation Xrotation
          JOINT LeftArm
          {
            OFFSET 9.155056 0 4.247191
            CHANNELS 3 Zrotation Yrotation Xrotation
            JOINT LeftForearm
            {
              OFFSET 0 0 25.771955
              CHANNELS 3 Zrotation Yrotation Xrotation
              JOINT LeftHand
              {
                OFFSET 0 0 25.197169
                CHANNELS 3 Zrotation Yrotation Xrotation
              }
            }
          }
        }
        JOINT RightShoulder
        {
          OFFSET -7.550562 1.41573 9.438202
          CHANNELS 3 Zrotation Yrotation Xrotation
          JOINT RightArm
          {
            OFFSET -9.155056 0 4.247191
            CHANNELS 3 Zrotation Yrotation Xrotation
            JOINT RightForearm
            {
              OFFSET 0 0 -25.771955
              CHANNELS 3 Zrotation Yrotation Xrotation
              JOINT RightHand
              {
                OFFSET 0 0 -25.197169
                CHANNELS 3 Zrotation Yrotation Xrotation
              }
            }
          }
        }
        JOINT Neck
        {
          OFFSET 0 0 15.101124
          CHANNELS 3 Zrotation Yrotation Xrotation
          JOINT Head
          {
            OFFSET 0 0 11.325843
            CHANNELS 3 Zrotation Yrotation Xrotation
            End Site
            {
              OFFSET 0 0 14.157303
            }
          }
        }
      }
    }
  }
}
MOTION
Frames: 13
Frame Time: 0.0
0.0  93.25843  0.0  -7.141023  7.261171  -120.22556  8.05846  -15.582351  15.151851  -16.452603  3.449552  10.407611  -1.735647  0.839239  2.017285  15.416462  -21.972064  -86.79205  24.756524  31.409388  108.246358  12.808179  7.296416  5.224023  -2.4837  -2.240759  1.625888  -6.953753  -5.946899  4.680996  -6.953754  -5.946899  4.680996  -8.916707  27.042779  13.093263  179.953333  58.901552  -117.419097  -14.962229  -18.638842  75.7896  96.835739  -12.946432  -0.469811  7.676734  -3.530189  17.70856  88.95021  70.911134  35.53312  -30.478396  15.568441  -70.107793  66.549332  10.097242  -45.498164  -22.751645  15.786796  9.50689  -17.209256  11.510644  7.698293  
0.0  93.25843  0.0  -7.545938  7.959491  -121.968695  7.352035  -15.80158  16.900964  -17.23667  3.397499  10.823749  -1.732492  0.944083  2.083971  15.721026  -22.249712  -88.94932  24.971676  31.44436  108.160168  12.688184  7.364731  5.175357  -2.598997  -2.382706  1.712525  -7.289681  -6.315931  4.945267  -7.28968  -6.315931  4.945267  -8.635151  29.096307  13.635683  175.604614  56.093824  -123.180781  -14.384623  -16.613293  73.730244  97.373399  -11.687525  -1.688534  5.946913  -2.315734  19.456216  84.586138  68.083609  31.851513  -29.81207  15.396057  -70.364815  70.104065  9.698502  -47.831535  -22.931113  16.615382  9.688211  -17.349876  12.124444  7.866872  
0.0  93.25843  0.0  -8.096241  8.741053  -123.568164  6.592278  -16.052119  18.330092  -17.872668  3.48678  11.359758  -1.658896  0.992854  2.188142  15.841545  -22.51041  -90.969571  24.985561  31.349215  107.895021  12.427144  7.457506  5.139805  -2.618505  -2.47867  1.8119  -7.361408  -6.564909  5.230822  -7.361408  -6.564909  5.230822  -8.972189  30.626958  14.234147  174.217219  53.315635  -126.964599  -13.204883  -12.623089  71.704113  97.829427  -10.614482  -3.298129  3.444634  -1.283098  20.804256  80.840882  64.873507  28.914322  -29.026653  15.589431  -70.525245  74.204772  9.843807  -49.409928  -23.519172  17.110858  9.916984  -17.795329  12.480159  8.071995  
0.0  93.25843  0.0  -8.621733  9.52428  -125.013758  6.035761  -16.369783  19.524583  -18.508673  3.685497  11.874397  -1.593005  1.019548  2.324151  15.937731  -22.860451  -92.823781  25.060077  31.090463  107.446797  12.156341  7.494768  5.156218  -2.601432  -2.530559  1.90749  -7.329026  -6.697035  5.497219  -7.329027  -6.697036  5.497219  -9.340323  31.9641  15.254663  176.247398  50.286501  -128.661656  -10.979107  -6.542345  69.990989  97.900917  -10.277814  -4.801817  0.739283  -0.099011  21.977372  77.176677  61.448768  26.233034  -27.919661  15.782882  -70.599652  78.392069  10.264298  -50.110675  -24.201827  17.396193  10.203622  -18.312503  12.673915  8.316537  
0.0  93.25843  0.0  -8.95303  10.243168  -126.184047  5.816181  -16.714738  20.4979  -18.888722  3.9239  12.279906  -1.637798  1.11421  2.161529  16.594278  -23.286496  -94.691913  25.324295  31.427539  106.60078  12.476874  7.517289  5.576126  -2.587814  -2.53451  2.009917  -7.302257  -6.697455  5.776788  -7.302257  -6.697455  5.776788  -9.224021  33.089502  16.353809  177.390531  47.668221  -131.225717  -12.69899  1.329164  68.615337  91.834527  -12.613136  -6.014759  -1.286723  0.887877  22.939137  73.270654  57.929545  24.232235  -26.484034  15.523484  -70.777763  82.671266  10.521667  -50.3295  -24.795181  17.439464  10.405294  -18.760302  12.689775  8.486685  
0.0  93.25843  0.0  -8.900902  12.551294  -126.721125  4.792156  -15.835292  21.130378  -18.849438  4.247752  12.243501  -1.252362  1.271141  2.395206  15.157447  -22.58112  -95.421193  25.41162  30.83244  105.606578  12.872988  7.437498  5.021852  -2.744119  -2.370252  2.042774  -7.716459  -6.231588  5.860948  -7.71646  -6.231588  5.860948  -8.925992  33.825539  17.049125  175.708497  46.171608  -135.121084  -14.901326  7.254127  64.29856  91.094784  -14.477607  -5.232708  -2.854085  1.270307  22.830291  69.688041  53.733648  23.951623  -24.793348  14.673465  -71.274197  86.563308  10.025898  -50.692613  -25.446321  17.192219  10.313303  -19.241916  12.497783  8.428745  
0.0  93.25843  0.0  -8.807167  13.370146  -127.66587  5.021696  -16.017398  22.090799  -18.699707  4.986777  12.055746  -0.395566  1.229658  2.91943  15.527182  -23.307444  -96.270923  26.607815  30.99191  105.425079  13.709315  7.110964  4.725858  -2.664138  -2.277551  2.219245  -7.50338  -5.965766  6.324825  -7.50338  -5.965766  6.324825  -8.741923  33.980646  17.71747  172.818658  45.195569  -138.930729  -14.526394  8.19052  60.554062  94.69143  -16.5417  -4.073713  -4.675278  1.03531  22.409604  66.247248  49.531829  24.594898  -22.876328  13.712117  -71.794775  90.327062  9.139833  -50.998547  -26.272992  16.623612  10.019059  -19.848417  12.070146  8.211798  
0.0  93.25843  0.0  -8.616345  14.406236  -128.368387  5.578155  -15.845219  22.701761  -17.629626  5.38618  12.584659  -0.386735  0.890615  2.971808  15.590555  -23.250278  -96.634772  27.230414  32.553124  104.943657  15.826121  6.92806  4.865729  -2.536766  -2.181784  2.369238  -7.156872  -5.700614  6.712496  -7.156872  -5.700614  6.712497  -9.287198  34.091675  17.998256  170.151246  44.46406  -142.900021  -9.678189  5.643658  58.257097  97.259433  -14.947524  -4.174446  -6.761224  1.045176  22.833769  61.894337  46.247706  24.007172  -20.621416  13.161498  -71.512505  93.653916  8.39022  -50.836972  -27.315111  15.956856  9.465659  -20.609138  11.577787  7.801428  
0.0  93.25843  0.0  -8.411329  15.572701  -128.878169  6.451381  -15.662055  22.904385  -16.474957  5.401465  13.377532  -1.026719  0.588051  2.875088  15.146257  -22.978613  -96.401429  27.779346  31.982813  104.929926  15.661174  6.328227  4.506912  -2.434004  -2.12784  2.459147  -6.876873  -5.554661  6.943614  -6.876873  -5.554661  6.943614  -9.985956  34.483475  18.307983  166.405355  43.965354  -147.469748  -4.695221  2.243279  56.330319  97.11742  -14.870347  -5.049462  -8.500974  1.465622  23.683504  57.444692  43.325695  23.206518  -18.506031  12.374987  -70.792155  96.740009  6.322893  -47.948957  -28.278706  15.511744  8.776423  -21.308976  11.261231  7.294212  
0.0  93.25843  0.0  -8.358491  16.774711  -129.177699  7.300066  -15.624515  22.843863  -15.302297  4.941215  14.257194  -3.354808  -0.253222  3.028648  14.593035  -22.705024  -96.043285  27.897214  31.407484  104.904146  15.254622  6.095417  4.327332  -2.537695  -2.047169  2.518125  -7.155616  -5.317117  7.103605  -7.155616  -5.317117  7.103605  -9.849502  34.768836  18.645951  161.741765  43.356752  -152.110636  -3.320278  0.20341  53.868028  95.349311  -15.111522  -5.251781  -9.062406  2.048354  24.91048  53.574536  40.669924  22.210137  -16.665071  11.785678  -69.569712  101.603357  4.691442  -43.878402  -28.563482  15.172435  8.132044  -21.50491  11.032052  6.805246  
0.0  93.25843  0.0  -8.426623  17.707541  -129.29861  7.641556  -15.421322  22.569868  -16.048128  4.539057  15.202734  -4.169527  0.047942  2.33927  14.334306  -22.661892  -95.33524  27.817391  31.238718  105.041179  15.070278  6.181461  4.205428  -2.956929  -1.934237  2.707793  -8.301931  -4.939116  7.638618  -8.301931  -4.939116  7.638618  -8.413438  34.796106  17.861207  158.289845  42.720587  -155.824833  -5.163455  0.24686  50.820889  94.308771  -15.644642  -3.6334  -7.438404  2.561359  26.07395  50.944483  38.407922  21.116042  -15.721845  12.110589  -68.202246  104.969998  2.710052  -40.133569  -27.506437  14.645248  7.408961  -20.699497  10.679556  6.213672  
0.0  93.25843  0.0  -8.844452  18.102953  -129.267341  6.885966  -15.223826  21.77358  -16.624588  4.628759  16.230796  -4.236329  0.558263  1.890504  14.492041  -23.186719  -94.29952  27.607566  31.231462  105.02623  15.104741  6.191857  4.237384  -3.479202  -1.829649  3.014189  -9.735518  -4.546937  8.495094  -9.735518  -4.546937  8.495094  -6.546712  34.43712  16.237834  156.441653  42.133951  -158.251333  -6.98092  0.325432  47.554311  93.405969  -16.014882  -1.310761  -4.920484  2.472804  26.444904  50.402833  36.058794  20.750371  -16.659823  11.79467  -66.734657  106.951743  0.80654  -36.434033  -26.022737  13.799332  6.573809  -19.574424  10.093848  5.516395  
0.0  93.25843  0.0  -9.278783  18.178245  -128.801027  5.482293  -14.962887  20.61504  -17.835364  6.056956  15.917352  -2.120933  0.317687  2.745665  14.921627  -23.771005  -93.085944  27.058534  31.182804  104.956534  15.074601  6.377208  4.282414  -3.790218  -1.834701  3.241913  -10.599966  -4.482896  9.136971  -10.599966  -4.482896  9.136971  -5.70728  34.412774  14.456578  155.728252  41.66014  -159.57366  -6.786677  -0.332531  44.329059  91.786921  -15.935494  0.079816  -3.347683  2.387333  26.104288  51.292306  33.7518  21.204428  -18.927191  6.597477  -64.380853  111.656053  -0.861744  -32.024594  -25.128348  13.078357  5.946989  -18.894235  9.585459  4.997256  
